<svg width="48" height="48" viewBox="0 0 48 48" fill="none" xmlns="http://www.w3.org/2000/svg">
<rect width="48" height="48" fill="white"/>
<rect x="7" y="9" width="34" height="29" rx="4" stroke="black" stroke-width="5"/>
<path d="M23.2539 12.8984H24.6133V34.1328H23.2539V12.8984ZM26.2891 20.2695C26.2578 19.8867 26.1523 19.5586 25.9727 19.2852C25.793 19.0117 25.5312 18.8086 25.1875 18.6758C24.8516 18.5352 24.4258 18.4648 23.9102 18.4648C23.4414 18.4648 23.0469 18.5234 22.7266 18.6406C22.4141 18.7578 22.1758 18.9219 22.0117 19.1328C21.8555 19.3359 21.7773 19.5703 21.7773 19.8359C21.7617 20.2656 21.9414 20.6094 22.3164 20.8672C22.6914 21.125 23.2891 21.3516 24.1094 21.5469L25.5273 21.8281C27.332 22.2188 28.6562 22.8477 29.5 23.7148C30.3516 24.5742 30.7852 25.6719 30.8008 27.0078C30.8008 28.1094 30.5234 29.0469 29.9688 29.8203C29.4219 30.5859 28.6367 31.1758 27.6133 31.5898C26.5977 31.9961 25.375 32.1992 23.9453 32.1992C22.4688 32.1992 21.1875 31.9766 20.1016 31.5312C19.0156 31.0859 18.1797 30.4141 17.5938 29.5156C17.0078 28.6094 16.7031 27.4766 16.6797 26.1172H20.9453C20.9766 26.6328 21.1133 27.0742 21.3555 27.4414C21.5977 27.8008 21.9336 28.0742 22.3633 28.2617C22.793 28.4414 23.3008 28.5312 23.8867 28.5312C24.3867 28.5312 24.8125 28.4648 25.1641 28.332C25.5156 28.1992 25.7812 28.0195 25.9609 27.793C26.1484 27.5664 26.2422 27.3047 26.2422 27.0078C26.2422 26.7266 26.1562 26.4844 25.9844 26.2812C25.8125 26.0781 25.5352 25.8984 25.1523 25.7422C24.7695 25.5781 24.2656 25.4297 23.6406 25.2969L21.9297 24.9102C20.375 24.582 19.1836 24.0312 18.3555 23.2578C17.5352 22.4766 17.125 21.4414 17.125 20.1523C17.125 19.0977 17.4141 18.168 17.9922 17.3633C18.5703 16.5508 19.3711 15.9219 20.3945 15.4766C21.4258 15.0234 22.6016 14.7969 23.9219 14.7969C25.2656 14.7969 26.4336 15.0234 27.4258 15.4766C28.4258 15.9219 29.1992 16.5586 29.7461 17.3867C30.293 18.2148 30.5664 19.1758 30.5664 20.2695H26.2891Z" fill="black"/>
</svg>
