<svg width="48" height="48" viewBox="0 0 48 48" fill="none" xmlns="http://www.w3.org/2000/svg">
<rect width="48" height="48" fill="white"/>
<path d="M44 24H12.0952L4 37H36.302L44 24Z" stroke="black" stroke-width="4" stroke-linecap="round" stroke-linejoin="round"/>
<path d="M23.0743 30.988C24.2818 30.9542 26.2356 30.8504 27.225 30.7932L28.408 30.6277C28.9496 30.5125 29.5487 30.3498 29.9933 30.1943C30.3253 30.0714 30.6173 29.9415 30.8916 29.7312C31.1865 29.505 31.4276 29.2995 31.6124 29.0598C31.8687 28.7274 32.2266 28.2198 32.5126 27.5106C32.8198 26.7489 32.9941 26.2566 32.9994 26.041C33.0058 25.7804 32.9614 25.1028 32.8281 24.2364C32.7742 23.8863 32.7288 23.7101 32.5048 23.1556C32.2808 22.601 31.89 21.6954 31.6798 21.221C31.4695 20.7465 31.4406 20.7045 31.2719 20.4011C31.1033 20.0978 30.804 19.5498 30.6403 19.2588C30.4767 18.9678 30.4496 18.9349 29.7186 17.7972C28.9876 16.6594 27.5949 14.4828 26.7395 13.0817C25.884 11.6805 25.5752 11.0731 25.33 11.0065C25.0849 10.9398 24.9087 11.3999 24.7519 11.7575C24.5951 12.1151 24.4618 12.3627 24.2429 12.7089C24.024 13.055 23.7287 13.4867 22.8965 14.4433C22.0643 15.3998 20.7356 16.8378 19.6916 18.0376C18.6476 19.2374 17.9106 20.1709 17.4322 20.8469C16.9539 21.523 16.7405 21.9292 16.6032 22.2182C16.4659 22.5072 16.4064 22.6739 16.3156 23.0589C16.2248 23.444 16.1064 24.0296 16.0472 24.5293C15.988 25.0291 15.988 25.4309 16.0278 25.8685C16.0676 26.3062 16.1349 26.7678 16.2079 27.077C16.3186 27.5462 16.4861 28.0185 16.8548 28.5143C17.1915 28.9672 17.6049 29.4832 18.1956 29.8799C18.7234 30.2345 19.0906 30.4399 19.5542 30.564C19.9044 30.6578 20.4774 30.7999 20.971 30.8912C21.4646 30.9825 21.8667 31.0218 23.0743 30.988Z" fill="white"/>
<path d="M23.3804 8.62891C23.8986 8.24755 24.7226 7.89329 25.7065 8.02832L25.9058 8.06152L25.9204 8.06445L25.9351 8.06836L26.0815 8.10254L26.1274 8.11328L26.1724 8.12793L26.4058 8.20605L26.4312 8.21484L26.4565 8.22461C27.2001 8.5193 27.6448 9.0183 27.7964 9.19238C28.0239 9.45381 28.2092 9.73329 28.3325 9.92578C28.5651 10.289 28.9311 10.9128 29.3003 11.5176C30.1347 12.8843 31.5087 15.0324 32.2427 16.1748C32.9332 17.2496 33.0352 17.3966 33.2554 17.7881C33.4166 18.0748 33.7536 18.6907 33.894 18.9434C34.092 19.2995 34.1655 19.4252 34.4224 20.0049C34.6387 20.4931 35.0448 21.4326 35.2866 22.0312C35.57 22.7329 35.6948 23.1393 35.7935 23.7803C35.9381 24.7202 36.0112 25.5971 35.9985 26.1143C35.9833 26.7336 35.7857 27.3117 35.7124 27.5293C35.6008 27.8604 35.4529 28.24 35.2944 28.6328C34.8673 29.6918 34.3343 30.4435 33.9888 30.8916C33.554 31.4553 33.0514 31.8561 32.7173 32.1123C32.0891 32.594 31.4669 32.8478 31.0347 33.0078L31.021 33.0137L31.0044 33.0195L30.9956 33.0225L30.9878 33.0244L30.9829 33.0254C30.3959 33.2306 29.6718 33.4266 29.0327 33.5625H29.0308L28.9614 33.5771L28.9282 33.584L28.895 33.5889L28.8257 33.5986H28.8237L27.6401 33.7637L27.5669 33.7744L27.5249 33.7803L27.4819 33.7832L27.4009 33.7881H27.3989C26.4087 33.8453 24.4142 33.9521 23.1577 33.9873C21.8425 34.0241 21.2075 33.9855 20.4253 33.8408C19.8226 33.7293 19.1653 33.5654 18.7788 33.4619C18.0686 33.2717 17.4991 32.9842 17.0005 32.6787L16.5229 32.3701C15.4861 31.6735 14.8216 30.8074 14.4478 30.3047C13.7621 29.3825 13.4604 28.4935 13.2886 27.7656C13.1716 27.2699 13.0875 26.657 13.0405 26.1406C12.9827 25.5051 12.984 24.8933 13.0688 24.1768V24.1758C13.1462 23.5233 13.2904 22.8178 13.396 22.3701C13.53 21.8017 13.6564 21.4318 13.894 20.9316C14.1063 20.4849 14.4073 19.9281 14.9839 19.1133C15.5393 18.3285 16.3449 17.3134 17.4282 16.0684C17.9699 15.4458 18.5811 14.7675 19.145 14.1416C19.7198 13.5036 20.2386 12.9283 20.6333 12.4746C21.3892 11.6057 21.5874 11.2954 21.7075 11.1055C21.8524 10.8764 21.913 10.7611 22.0044 10.5527C22.0245 10.507 22.2206 10.0245 22.4614 9.6377C22.586 9.43768 22.8764 8.99997 23.3804 8.62891ZM25.1597 16.4121C24.7225 16.9147 24.1619 17.5369 23.603 18.1572C23.0337 18.7892 22.4568 19.4297 21.9546 20.0068C20.9504 21.1609 20.2825 22.0122 19.8813 22.5791C19.502 23.1151 19.3767 23.3738 19.314 23.5059C19.2915 23.5531 19.2801 23.577 19.2759 23.5869V23.5889C19.2771 23.5857 19.2781 23.5822 19.2788 23.5801L19.2358 23.7471C19.1596 24.0705 19.0679 24.536 19.0269 24.8818C18.9934 25.1642 18.9943 25.3567 19.0161 25.5967C19.0487 25.9556 19.0986 26.2654 19.1274 26.3877C19.1565 26.5108 19.1795 26.5724 19.1948 26.6084C19.2023 26.6259 19.2097 26.6424 19.2192 26.6592C19.2289 26.6762 19.2425 26.6981 19.2622 26.7246C19.5644 27.1311 19.7266 27.2942 19.8687 27.3896L20.1313 27.5596C20.1968 27.5997 20.2422 27.6252 20.2739 27.6416C20.3023 27.6563 20.3149 27.6607 20.3159 27.6611L20.3179 27.6621C20.3192 27.6625 20.3228 27.6639 20.3306 27.666C20.646 27.7505 21.134 27.8705 21.5171 27.9414C21.7214 27.9792 21.8913 28.02 22.9907 27.9893C24.1025 27.9581 25.9105 27.8628 26.9292 27.8047L27.8628 27.6729C28.264 27.5844 28.6781 27.4713 28.9614 27.375C29.0378 27.3465 29.0842 27.3261 29.1108 27.3145C29.1912 27.2518 29.2388 27.2132 29.2632 27.1914C29.4241 26.9797 29.5946 26.7267 29.731 26.3887C29.8473 26.1002 29.9275 25.8837 29.9839 25.7266C29.9816 25.695 29.9811 25.6613 29.978 25.626C29.9568 25.3819 29.9204 25.0613 29.8638 24.6934C29.8566 24.6467 29.8514 24.6215 29.8491 24.6094C29.841 24.5841 29.8124 24.5003 29.7231 24.2793L29.3296 23.3389C29.1844 22.9996 29.0399 22.6666 28.938 22.4365C28.837 22.2086 28.8016 22.1379 28.7837 22.1025C28.7753 22.086 28.768 22.0724 28.7495 22.0391C28.7268 21.998 28.7029 21.9546 28.6499 21.8594C28.4523 21.504 28.1922 21.0253 28.0259 20.7295C27.919 20.5395 27.968 20.6213 27.1948 19.418C26.7172 18.6745 25.9484 17.4732 25.229 16.3301C25.2059 16.3568 25.1835 16.3848 25.1597 16.4121Z" fill="black" stroke="white" stroke-width="2" stroke-linecap="round"/>
</svg>
