<svg width="48" height="48" viewBox="0 0 48 48" fill="none" xmlns="http://www.w3.org/2000/svg">
<path d="M26 8.12402C27.474 8.30784 28.8857 8.69234 30.207 9.24902L31.7686 6.5459L35.2324 8.5459L33.6689 11.252C34.8297 12.1337 35.8663 13.1703 36.748 14.3311L39.4551 12.7686L41.4541 16.2324L38.75 17.793C39.3067 19.1144 39.6912 20.5259 39.875 22H43V26H39.875C39.6912 27.4741 39.3067 28.8856 38.75 30.207L41.4551 31.7686L39.4551 35.2324L36.7471 33.6689C35.8655 34.8294 34.8294 35.8655 33.6689 36.7471L35.2324 39.4551L31.7686 41.4551L30.207 38.75C28.8856 39.3067 27.4741 39.6912 26 39.875V43H22V39.875C20.5259 39.6912 19.1144 39.3067 17.793 38.75L16.2324 41.4541L12.7686 39.4541L14.3301 36.7471C13.1697 35.8655 12.1335 34.8294 11.252 33.6689L8.5459 35.2324L6.5459 31.7676L9.24902 30.2061C8.69254 28.885 8.30878 27.4737 8.125 26H5V22H8.125C8.30882 20.526 8.69236 19.1143 9.24902 17.793L6.5459 16.2324L8.5459 12.7686L11.252 14.3301C12.1335 13.1697 13.1697 12.1335 14.3301 11.252L12.7686 8.5459L16.2324 6.5459L17.793 9.24902C19.1143 8.69234 20.526 8.30784 22 8.12402V5H26V8.12402ZM24 16C19.5817 16 16 19.5817 16 24C16 28.4183 19.5817 32 24 32C28.4183 32 32 28.4183 32 24C32 19.5817 28.4183 16 24 16Z" fill="#313131"/>
</svg>
