<svg width="48" height="48" viewBox="0 0 48 48" fill="none" xmlns="http://www.w3.org/2000/svg">
<rect width="48" height="48" fill="white"/>
<path d="M19 26C19 23.6131 19.9482 21.3239 21.636 19.636C23.3239 17.9482 25.6131 17 28 17C30.387 17 32.6761 17.9482 34.364 19.636C36.0518 21.3239 37 23.6131 37 26V36C37 38.3869 36.0518 40.6761 34.364 42.364C32.6761 44.0518 30.3869 45 28 45C25.613 45 23.3239 44.0518 21.636 42.364C19.9482 40.6761 19 38.3869 19 36" stroke="black" stroke-width="4" stroke-linecap="round"/>
<path d="M28 22C28 24.3869 27.0518 26.6761 25.364 28.364C23.6761 30.0518 21.3869 31 19 31C16.613 31 14.3239 30.0518 12.636 28.364C10.9482 26.6761 10 24.3869 10 22L10 12C10 9.61305 10.9482 7.32387 12.636 5.63604C14.3239 3.94821 16.6131 3 19 3C21.387 3 23.6761 3.94821 25.364 5.63604C27.0518 7.32387 28 9.61305 28 12" stroke="black" stroke-width="4" stroke-linecap="round"/>
</svg>
