<svg width="48" height="48" viewBox="0 0 48 48" fill="none" xmlns="http://www.w3.org/2000/svg">
<rect width="48" height="48" fill="white"/>
<path d="M38.611 26.3147C38.4877 26.7751 38.1759 27.1687 37.6758 27.4958C37.1757 27.8228 36.5524 28.0359 35.806 28.1352C35.0671 28.2364 34.2751 28.1738 33.4299 27.9474L28.404 26.6007C28.0795 26.5138 27.8269 26.4906 27.6462 26.5311C27.4675 26.5641 27.249 26.6552 26.9907 26.8043L16.7646 32.9571C16.4201 33.156 16.0819 33.211 15.7499 33.122L13.7237 32.5791C13.5728 32.5386 13.4757 32.4479 13.4326 32.307C13.3895 32.166 13.4307 32.0274 13.5562 31.8912L20.0412 24.3963L14.1778 22.1458L11.0846 25.0415C10.8438 25.2763 10.546 25.3461 10.1914 25.2511L9.60274 25.0934C9.42918 25.0469 9.29719 24.9508 9.20678 24.8053C9.12391 24.6618 9.10574 24.5032 9.15224 24.3296L12.1064 13.3045C12.1529 13.1309 12.2479 13.0027 12.3915 12.9199C12.5425 12.839 12.7049 12.8219 12.8784 12.8684L13.467 13.0261C13.8217 13.1211 14.0446 13.3305 14.1359 13.6542L15.3667 17.7086L21.5729 18.68L19.7041 8.94667C19.6636 8.76596 19.6962 8.62911 19.802 8.53614C19.9098 8.43562 20.0392 8.40558 20.1901 8.44602L22.2163 8.98893C22.5483 9.0779 22.8138 9.29462 23.0127 9.63908L28.7953 20.0693C28.9445 20.3276 29.0872 20.5195 29.2234 20.645C29.3596 20.7705 29.59 20.8767 29.9145 20.9636L34.9403 22.3103C35.7855 22.5368 36.5027 22.8786 37.092 23.3357C37.6908 23.7873 38.124 24.2836 38.3916 24.8244C38.6612 25.3576 38.7343 25.8544 38.611 26.3147Z" fill="black"/>
<path d="M9 40H39" stroke="black" stroke-width="5" stroke-linecap="round" stroke-linejoin="round"/>
</svg>
