<svg width="48" height="48" viewBox="0 0 48 48" fill="none" xmlns="http://www.w3.org/2000/svg">
<path d="M38.4138 16C38.4138 20.4183 34.8707 24 30.5 24C26.1293 24 22.5862 20.4183 22.5862 16C22.5862 11.5817 26.1293 8 30.5 8C34.8707 8 38.4138 11.5817 38.4138 16Z" fill="#313131"/>
<path d="M44 44C44 39.2261 42.5777 34.6477 40.0459 31.2721C37.5142 27.8964 34.0804 26 30.5 26C26.9196 26 23.4858 27.8964 20.9541 31.2721C18.4223 34.6477 17 39.2261 17 44L44 44Z" fill="#313131"/>
<path d="M16.5 26C18.3803 26 20.2224 26.4545 21.9326 27.3125C20.9976 28.1094 20.1326 29.0349 19.3545 30.0723C16.5295 33.8389 15 38.8529 15 44H2C2 39.2262 3.52788 34.6481 6.24707 31.2725C8.96635 27.8968 12.6544 26 16.5 26ZM23.75 28.4131C24.8379 29.1929 25.8492 30.1506 26.7529 31.2725C29.4721 34.6481 31 39.2262 31 44H17C17 39.3753 18.3346 34.9338 20.7197 31.5918L20.9541 31.2725C21.7955 30.1506 22.7371 29.1929 23.75 28.4131ZM17 8C19.1108 8 21.0294 8.81871 22.459 10.1543C21.2808 11.8012 20.5859 13.8211 20.5859 16C20.5859 18.1789 21.2793 20.1995 22.458 21.8457C21.0285 23.181 19.1105 24 17 24C12.5817 24 9 20.4183 9 16C9 11.5817 12.5817 8 17 8ZM23.7861 11.7646C24.5545 12.9931 25 14.4442 25 16C25 17.5555 24.5542 19.0061 23.7861 20.2344C23.0264 19.0061 22.5859 17.5553 22.5859 16C22.5859 14.4444 23.0262 12.993 23.7861 11.7646Z" fill="#313131"/>
</svg>
