<svg width="48" height="48" viewBox="0 0 48 48" fill="none" xmlns="http://www.w3.org/2000/svg">
<path fill-rule="evenodd" clip-rule="evenodd" d="M14.1536 8C15.3734 8 16.3641 8.98806 16.3641 10.2069V13.9415C16.8286 15.1962 17.4845 16.2153 18.2578 17.0151C19.7994 18.6088 21.8815 19.4314 24 19.4315C26.1186 19.4315 28.2016 18.6088 29.7432 17.0151C30.5166 16.2152 31.1716 15.1953 31.6359 13.9395V10.2069C31.6359 8.98806 32.6266 8 33.8464 8L34.1982 8C35.4193 8 36.4087 8.98806 36.4087 10.2069V12.6391C36.8111 14.5621 37.5787 16.0252 38.5115 17.0817C39.8077 18.549 41.2822 19.3476 43 19.4435C44.1118 19.4691 45 20.3573 45 21.4435V21.4973C45 22.0361 44.7873 22.5522 44.4104 22.9285C44.034 23.3043 43.5256 23.5096 43 23.4967L43.0823 23.4718C43.0709 23.4716 43.0483 23.4708 43.0483 23.4708C40.662 23.3439 38.3065 22.3589 36.4087 20.5302V27.6129H42.7895C44.0103 27.6131 45 28.6011 45 29.8198V31.5996C45 32.8182 44.0103 33.8062 42.7895 33.8065H36.4087V39.7931C36.4087 41.0119 35.4193 42 34.1982 42H33.8464C32.6266 42 31.6359 41.0119 31.6359 39.7931V33.8065H16.3641C16.3641 33.8065 16.3641 38.5743 16.3641 39.7931C16.3641 41.0119 15.3734 42 14.1536 42H13.8018C12.5807 42 11.5913 41.0119 11.5913 39.7931V33.8065H5.21053C3.98965 33.8062 3 32.8182 3 31.5996V29.8198C3 28.6011 3.98965 27.6131 5.21053 27.6129H11.5913V20.5333C9.55324 22.4975 6.98581 23.4836 4.42154 23.4839H5C4.4698 23.4838 3.962 23.2728 3.587 22.8985C3.21182 22.5234 2.99948 22.0141 3 21.4839L3 21.2414L3.00709 21.4315C2.99234 19.7659 3.96685 19.4315 5.00692 19.4315C6.7304 19.3398 8.18837 18.5531 9.48747 17.0817C10.4215 16.0234 11.1899 14.5572 11.5913 12.629V10.2069C11.5913 8.98806 12.5807 8 13.8018 8L14.1536 8ZM31.6359 20.622C29.437 22.5418 26.7035 23.4839 24 23.4839C21.2965 23.4838 18.563 22.5419 16.3641 20.622V27.6129H31.6359V20.622Z" fill="#313131"/>
</svg>
