<svg width="48" height="48" viewBox="0 0 48 48" fill="none" xmlns="http://www.w3.org/2000/svg">
<circle cx="24" cy="24" r="17.5" stroke="#313131" stroke-width="5"/>
<path d="M25.5378 30.3292C26.2696 30.029 27.5896 29.4807 28.2859 29.1788L29.5712 28.5454C29.9493 28.324 30.3757 28.1028 30.7001 28.049C31.0882 27.9847 31.4813 27.9413 31.6273 28.2021C31.776 28.4676 32.1317 28.9779 31.9491 29.9167C31.8059 30.6525 31.639 31.4676 30.959 32.3434C30.4885 32.9493 30.0175 33.5052 29.6178 33.813C29.2115 34.1257 28.6704 34.8747 27.0989 35.3406C25.7273 35.7473 24.9797 36.025 24.2114 35.9982C23.0205 35.9568 22.54 35.9359 22.3509 35.6968C22.2583 35.5796 22.1522 35.4454 22.11 35.2587C22.021 34.8655 21.9476 34.4434 22.0492 34.0708C22.185 33.5725 22.1954 32.8698 23.0532 31.9042C23.6007 31.2879 24.3795 30.8044 25.5378 30.3292Z" fill="#313131"/>
<path d="M13.0202 30.2254C11.7843 30.0923 10.7858 29.9289 10.2568 29.8209L8.83276 29.5542C8.57477 29.4597 8.34747 29.3678 8.11004 29.2324C7.63234 28.923 7.27722 28.6387 7.14736 28.4438C7.05236 28.1747 6.79908 27.4121 7.04293 26.9731C7.14886 26.7824 7.43082 26.4783 7.67125 26.4747C7.82751 26.4723 8.25194 26.6405 8.78826 26.6089C9.2255 26.5831 9.83114 26.3206 10.1497 26.1201C10.4033 25.9605 10.9593 25.3787 11.2612 25.2398C11.4008 25.1755 11.5781 25.0439 12.6538 25.1826C13.1519 25.2469 13.8635 25.3651 14.3314 25.4563C14.7993 25.5475 15.0164 25.6123 15.2188 25.6624C15.6007 25.7569 16.0048 25.8616 16.4574 25.8673C16.9272 25.8732 17.5134 25.8036 18.0652 25.6696C18.3823 25.5926 18.5852 25.5501 18.7261 25.4428C18.8484 25.3496 18.9326 25.2712 19.033 25.0665C19.2598 24.604 19.4761 24.1266 19.4794 23.7683C19.4847 23.1892 19.4797 22.9192 19.3369 22.7506C19.1142 22.4875 18.6365 21.9938 18.0963 22.0131C17.8836 22.0207 17.4923 22.0786 17.0121 22.3023C16.5777 22.5046 16.229 22.7046 15.8244 22.8024C15.2584 22.9392 14.779 23.1217 14.4566 23.1765C14.1785 23.2238 13.9165 23.2172 13.7248 23.1177C13.5912 23.0484 13.498 22.98 13.1568 22.5534C12.8492 22.1689 12.2893 21.4595 11.8668 20.8748C11.4442 20.2902 11.1531 19.8519 11.0229 19.6021C10.8054 19.1847 10.6528 18.5652 10.6029 18.1554C10.5568 17.7755 10.5221 17.5755 10.6326 17.4785C10.6867 17.431 10.7504 17.3973 10.8273 17.3917C11.0371 17.3766 11.3229 17.2894 11.6097 17.394C11.9302 17.5109 12.1752 17.6437 12.3388 17.8088C12.4793 17.9506 12.6075 18.1005 12.754 18.2649C12.8922 18.4201 13.0634 18.5357 13.3656 18.5567C13.8853 18.5928 14.3934 18.5851 14.5458 18.4077C14.6186 18.3229 14.7077 18.1987 14.7963 17.9126C14.951 17.4132 15.1159 16.8983 15.1995 16.5329C15.255 16.2905 15.2407 15.8336 15.3087 15.2423C15.3513 14.8719 15.3941 14.6483 15.5647 14.468C15.8457 14.1711 16.2505 13.7352 16.6855 13.3593C16.9605 13.1216 17.1237 13.0169 17.3566 12.8396C17.8438 12.4686 18.1962 12.1918 18.3008 12.1598C18.386 12.1337 18.5728 12.1002 19.0101 12.1824C19.3117 12.2391 19.7615 12.3491 20.2643 12.4295C20.767 12.51 21.3063 12.5593 22.1322 12.5837C22.9582 12.6082 24.0381 12.6077 24.6378 12.5969C25.2374 12.5861 25.3533 12.5656 25.5311 12.5156C25.709 12.4655 25.9418 12.3883 26.7006 12.0219C27.4594 11.6555 28.7013 11.0086 29.3718 10.688C30.118 10.3312 30.282 10.2771 30.4874 10.2795C30.7734 10.2828 31.3148 10.3288 31.9647 10.5577C32.2722 10.6661 32.524 10.7995 33.0237 11.1948C33.5234 11.59 34.249 12.2277 34.6527 12.5758C35.0563 12.9239 35.1345 12.9827 35.1991 13.0226C35.3086 13.0901 35.7622 13.2662 36.3688 13.5492C36.6619 13.686 36.7703 13.7285 36.8911 13.7954C37.2824 14.0122 37.529 14.0898 37.6292 14.5084C37.7165 14.8732 37.7398 15.288 37.3511 16.0545C37.1866 16.3789 36.9399 16.8241 36.7936 17.0903C36.5353 17.5602 36.4613 17.7102 36.3066 17.8935C35.9793 18.2814 35.6765 18.4894 35.4927 18.6928C35.3586 18.8412 35.0934 19.1647 34.867 19.5128C34.7574 19.6813 34.6271 19.9039 34.603 20.207C34.5754 20.5537 34.6278 21.1239 34.6042 21.7353C34.5924 22.0396 34.6289 22.3931 34.462 22.864C34.3517 23.1751 34.137 23.57 33.8296 23.9162C33.6261 24.1454 33.4928 24.3105 33.3409 24.3667C32.9821 24.4996 32.0724 24.7707 31.7143 24.5232C31.6408 24.4724 31.5634 24.417 31.5321 24.3333C31.4745 24.1798 31.39 23.4854 31.5989 22.7779C31.6551 22.5876 31.873 22.0382 31.9565 21.2483C32.0017 20.8206 32.0165 20.6157 31.9484 20.5024L31.9431 20.4935C31.7061 20.099 31.3898 19.5725 31.1944 19.5671C31.0612 19.5634 30.8776 19.5691 30.7326 19.6669C30.4003 19.8912 29.8696 20.3121 29.774 20.9233C29.6835 21.5022 29.643 22.0468 29.5165 22.42C29.383 22.8138 29.2666 23.1261 29.0455 23.4365C28.652 23.9888 28.2635 24.4749 27.9754 24.6732C27.7845 24.8045 27.5578 24.9185 26.9957 25.051C26.5895 25.1467 25.9482 25.2814 25.2983 25.4981C24.6485 25.7147 24.0095 26.0046 23.4395 26.3325C22.8695 26.6604 22.372 27.0023 22.0709 27.2656C21.6245 27.6558 21.4174 27.9398 21.2217 28.1653C21.0447 28.3692 20.8001 28.5777 20.4983 28.8349L20.4665 28.862C20.1174 29.1596 19.6206 29.507 19.0747 29.761C18.7385 29.9175 18.362 30.1443 17.9066 30.3408C17.6511 30.451 17.4401 30.5225 16.5082 30.4817C15.701 30.4464 14.2561 30.3585 13.0202 30.2254Z" fill="#313131"/>
</svg>
