<svg width="48" height="48" viewBox="0 0 48 48" fill="none" xmlns="http://www.w3.org/2000/svg">
<rect width="48" height="48" fill="white"/>
<path d="M15 15C14.606 15 14.2159 15.2328 13.8519 15.6851C13.488 16.1374 13.1573 16.8003 12.8787 17.636C12.6001 18.4718 12.3791 19.4639 12.2284 20.5558C12.0776 21.6478 12 22.8181 12 24C12 25.1819 12.0776 26.3522 12.2284 27.4442C12.3791 28.5361 12.6001 29.5282 12.8787 30.364C13.1573 31.1997 13.488 31.8626 13.852 32.3149C14.2159 32.7672 14.606 33 15 33" stroke="black" stroke-width="5"/>
<path d="M8 14C7.47471 14 6.95457 14.2587 6.46927 14.7612C5.98396 15.2638 5.54301 16.0003 5.17157 16.9289C4.80014 17.8575 4.5055 18.9599 4.30448 20.1732C4.10346 21.3864 4 22.6868 4 24C4 25.3132 4.10346 26.6136 4.30448 27.8268C4.5055 29.0401 4.80014 30.1425 5.17157 31.0711C5.54301 31.9997 5.98396 32.7362 6.46927 33.2388C6.95457 33.7413 7.47471 34 8 34" stroke="black" stroke-width="5"/>
<path d="M34 43C35.3132 43 36.6136 42.5085 37.8268 41.5537C39.0401 40.5989 40.1425 39.1993 41.0711 37.435C41.9997 35.6707 42.7362 33.5762 43.2388 31.271C43.7413 28.9658 44 26.4951 44 24C44 21.5049 43.7413 19.0342 43.2388 16.729C42.7362 14.4238 41.9997 12.3293 41.0711 10.565C40.1425 8.80066 39.0401 7.40113 37.8268 6.44629C36.6136 5.49145 35.3132 5 34 5" stroke="black" stroke-width="5"/>
<path d="M35 43C34.0807 43 33.1705 42.5085 32.3212 41.5537C31.4719 40.5989 30.7003 39.1993 30.0503 37.435C29.4002 35.6707 28.8846 33.5762 28.5328 31.271C28.1811 28.9658 28 26.4951 28 24C28 21.5049 28.1811 19.0342 28.5328 16.729C28.8846 14.4238 29.4002 12.3293 30.0503 10.565C30.7003 8.80066 31.4719 7.40113 32.3212 6.44629C33.1705 5.49145 34.0807 5 35 5" stroke="black" stroke-width="5"/>
<path d="M35 5L15.0714 15.1333L8 13.8667M8 34.1333L15.0714 32.8667L35 43" stroke="black" stroke-width="5" stroke-linecap="round" stroke-linejoin="round"/>
</svg>
