<svg width="48" height="48" viewBox="0 0 48 48" fill="none" xmlns="http://www.w3.org/2000/svg">
<rect width="48" height="48" fill="white"/>
<path d="M25 16C25 20.4183 21.4183 24 17 24C12.5817 24 9 20.4183 9 16C9 11.5817 12.5817 8 17 8C21.4183 8 25 11.5817 25 16Z" fill="black"/>
<path d="M31 44C31 39.2261 29.4723 34.6477 26.753 31.2721C24.0338 27.8964 20.3456 26 16.5 26C12.6544 26 8.96623 27.8964 6.24695 31.2721C3.52768 34.6477 2 39.2261 2 44L31 44Z" fill="black"/>
<path d="M31.5 25C35.6892 25 39.6504 27.0671 42.5322 30.6445C45.4094 34.2162 47 39.0225 47 44V45H16V44C16 39.0225 17.5906 34.2162 20.4678 30.6445C23.3496 27.0671 27.3108 25 31.5 25ZM31.5 25C36.6887 25 41 21.0268 41 16C41 10.9732 36.6887 7 31.5 7C26.3113 7 22 10.9732 22 16C22 21.0268 26.3113 25 31.5 25Z" fill="black" stroke="white" stroke-width="2"/>
</svg>
