<svg width="48" height="48" viewBox="0 0 48 48" fill="none" xmlns="http://www.w3.org/2000/svg">
<path d="M38 6C39.6569 6 41 7.34315 41 9C41 10.6569 39.6569 12 38 12H17V34H26C27.6569 34 29 35.3431 29 37V40C29 41.6569 27.6569 43 26 43H10C8.34315 43 7 41.6569 7 40V37C7 35.3431 8.34315 34 10 34H12V12H10C8.34315 12 7 10.6569 7 9C7 7.34315 8.34315 6 10 6H38ZM36 14C37.6569 14 39 15.3431 39 17V21C39 22.6569 37.6569 24 36 24H28C26.3431 24 25 22.6569 25 21V17C25 15.3431 26.3431 14 28 14H36Z" fill="#313131"/>
</svg>
