<svg width="48" height="48" viewBox="0 0 48 48" fill="none" xmlns="http://www.w3.org/2000/svg">
<path d="M21.2324 14.2325C22.2087 13.2562 23.7913 13.2562 24.7676 14.2325L34.7676 24.2325C35.7439 25.2088 35.7439 26.7913 34.7676 27.7676L24.7676 37.7676C23.7913 38.7439 22.2087 38.7439 21.2324 37.7676C20.2561 36.7913 20.2561 35.2088 21.2324 34.2325L26.9648 28.5001H7C5.61929 28.5001 4.5 27.3808 4.5 26.0001C4.5 24.6193 5.61929 23.5001 7 23.5001H26.9648L21.2324 17.7676C20.2561 16.7913 20.2561 15.2088 21.2324 14.2325Z" fill="#313131"/>
<path d="M16.5 29.5V41C16.5 42.3807 15.3807 43.5 14 43.5C12.6193 43.5 11.5 42.3807 11.5 41V29.5H16.5ZM36 4.5C39.5899 4.5 42.5 7.41015 42.5 11V41C42.5 42.3807 41.3807 43.5 40 43.5C38.6193 43.5 37.5 42.3807 37.5 41V11C37.5 10.1716 36.8284 9.5 36 9.5H18C17.1716 9.5 16.5 10.1716 16.5 11V22.5H11.5V11C11.5 7.41015 14.4101 4.5 18 4.5H36ZM16.5 28.5H11.5V23.5H16.5V28.5Z" fill="#313131"/>
</svg>
