<svg width="48" height="48" viewBox="0 0 48 48" fill="none" xmlns="http://www.w3.org/2000/svg">
<path d="M43.6094 23.7188C43.6094 24.3542 43.3438 24.9688 42.8125 25.5625C42.2812 26.1562 41.5521 26.6458 40.625 27.0312C39.7083 27.4167 38.6667 27.6094 37.5 27.6094H30.5625C30.1146 27.6094 29.7812 27.6667 29.5625 27.7812C29.3438 27.8854 29.0938 28.0781 28.8125 28.3594L17.7656 39.8125C17.3906 40.1875 16.974 40.375 16.5156 40.375H13.7188C13.5104 40.375 13.3542 40.2917 13.25 40.125C13.1458 39.9583 13.151 39.7656 13.2656 39.5469L19.0312 27.6562L10.7031 26.7812L7.71875 31.5781C7.48958 31.9635 7.13021 32.1562 6.64062 32.1562H5.82812C5.58854 32.1562 5.38542 32.0781 5.21875 31.9219C5.0625 31.7656 4.98438 31.5677 4.98438 31.3281V16.1094C4.98438 15.8698 5.0625 15.6719 5.21875 15.5156C5.38542 15.3594 5.58854 15.2812 5.82812 15.2812H6.64062C7.13021 15.2812 7.48958 15.474 7.71875 15.8594L10.7031 20.6562L19.0312 19.7656L13.2656 7.875C13.151 7.65625 13.1458 7.46875 13.25 7.3125C13.3542 7.14583 13.5104 7.0625 13.7188 7.0625H16.5156C16.974 7.0625 17.3906 7.25 17.7656 7.625L28.8125 19.0625C29.0938 19.3438 29.3438 19.5417 29.5625 19.6562C29.7812 19.7708 30.1146 19.8281 30.5625 19.8281H37.5C38.6667 19.8281 39.7083 20.0208 40.625 20.4062C41.5521 20.7812 42.2812 21.2708 42.8125 21.875C43.3438 22.4688 43.6094 23.0833 43.6094 23.7188Z" fill="#313131"/>
</svg>
