<svg width="48" height="48" viewBox="0 0 48 48" fill="none" xmlns="http://www.w3.org/2000/svg">
<path d="M23.9729 9.43455C24.3608 9.149 24.9802 8.89521 25.7082 9.04197L25.8547 9.07615L26.0881 9.15427C26.6047 9.359 26.9208 9.70915 27.0422 9.84861C27.2198 10.0527 27.3729 10.2813 27.4904 10.4648C27.717 10.8184 28.0584 11.4033 28.4465 12.039C29.288 13.4174 30.6686 15.575 31.4016 16.7158C32.1051 17.8107 32.1826 17.9202 32.384 18.2783C32.5466 18.5674 32.8688 19.1582 33.0197 19.4297C33.2082 19.7687 33.2669 19.8661 33.508 20.4101C33.7225 20.894 34.1238 21.8224 34.3596 22.4062C34.623 23.0584 34.7211 23.3881 34.8049 23.9326C34.9458 24.8481 35.0098 25.6583 34.9992 26.0898C34.9882 26.5403 34.8399 26.9872 34.7649 27.2099C34.663 27.5121 34.5244 27.8694 34.3674 28.2588C33.9871 29.2016 33.5121 29.872 33.1965 30.2812C32.8448 30.7372 32.4291 31.0726 32.1086 31.3183C31.598 31.7099 31.0857 31.9229 30.6877 32.0703L30.6711 32.0761L30.6535 32.082C30.1137 32.2707 29.4309 32.455 28.8244 32.584L28.7551 32.5986L28.6858 32.6084L27.5022 32.7734L27.4221 32.7851L27.341 32.79C26.3511 32.8472 24.3703 32.9526 23.1301 32.9873C21.8512 33.0231 21.2939 32.9843 20.6076 32.8574C20.0409 32.7526 19.4112 32.5962 19.0373 32.4961C18.2511 32.2856 17.6641 31.9322 17.0803 31.54C16.1918 30.9432 15.6111 30.1933 15.2502 29.708C14.6704 28.9281 14.4134 28.178 14.2619 27.5361C14.1596 27.1023 14.0809 26.5396 14.0363 26.0498C13.9846 25.4804 13.9854 24.9386 14.0617 24.2939C14.1331 23.692 14.2688 23.0261 14.3694 22.5996C14.4889 22.0926 14.5928 21.7903 14.7971 21.3603C14.9845 20.9659 15.2563 20.4598 15.8 19.6914C16.3298 18.9427 17.1125 17.9546 18.1828 16.7246C18.718 16.1096 19.3229 15.4377 19.8879 14.8105C20.4599 14.1756 20.9861 13.5928 21.3879 13.1308C22.1696 12.2323 22.4 11.8815 22.5529 11.6396C22.7229 11.3707 22.8073 11.2114 22.9201 10.9541C22.9558 10.8727 23.1179 10.4756 23.3108 10.166C23.4095 10.0074 23.6191 9.69502 23.9729 9.43455ZM25.341 14.622C25.1116 14.9209 24.8154 15.2847 24.4055 15.7558C23.9752 16.2505 23.4209 16.8652 22.8596 17.4883C22.2913 18.119 21.7092 18.7658 21.2004 19.3506C20.1829 20.52 19.4916 21.3986 19.0647 22.0019C18.652 22.5851 18.4977 22.8925 18.4104 23.0761C18.3587 23.185 18.3431 23.2254 18.3332 23.2539C18.3212 23.2888 18.3015 23.3537 18.2629 23.5176C18.1819 23.861 18.0805 24.367 18.0334 24.7646C17.9914 25.1195 17.9919 25.3816 18.0197 25.6875C18.0548 26.0725 18.111 26.4326 18.1545 26.6172C18.1925 26.7779 18.2306 26.8977 18.2746 27.001C18.3172 27.1007 18.3738 27.205 18.4602 27.3213C18.7725 27.7414 19.0184 28.0233 19.3108 28.2197C19.7824 28.5365 19.9305 28.594 20.0715 28.6318C20.3981 28.7193 20.9148 28.847 21.3352 28.9248C21.6359 28.9804 21.8832 29.021 23.0188 28.9892C24.1627 28.9572 26.0198 28.8586 27.0295 28.8008L28.049 28.6572C28.4971 28.5596 28.9717 28.4294 29.3059 28.3144C29.5658 28.2178 29.6376 28.1732 29.675 28.1445C29.9445 27.9378 30.0105 27.8613 30.0285 27.8379C30.2255 27.5824 30.4667 27.238 30.6584 26.7627C30.8084 26.3907 30.9104 26.1208 30.9738 25.9326C30.983 25.9055 30.989 25.8812 30.9953 25.8613C30.9914 25.7784 30.9852 25.6701 30.9738 25.539C30.9507 25.2731 30.9118 24.9309 30.8518 24.541C30.8312 24.4072 30.8224 24.3723 30.8117 24.3359C30.7944 24.2768 30.757 24.1678 30.6506 23.9043C30.4384 23.3789 30.0578 22.4961 29.8518 22.0312C29.7486 21.7984 29.7057 21.7089 29.676 21.6504C29.6441 21.5874 29.6216 21.5491 29.5237 21.373C29.3373 21.0379 29.0623 20.532 28.8977 20.2392C28.7718 20.0154 28.7949 20.0585 28.0363 18.8779C27.388 17.8688 26.2064 16.0202 25.341 14.622Z" fill="#313131"/>
<path d="M12.4224 22.1406C12.3118 22.6097 12.159 23.3553 12.0757 24.0586C11.9823 24.8472 11.9807 25.5286 12.0444 26.2305C12.0818 26.6416 12.1418 27.1221 12.2261 27.5732L7.60205 35H35.1626L40.4917 26H36.9995C37 25.3969 36.9191 24.522 36.7817 23.6289V23.6279C36.6864 23.0085 36.5624 22.5699 36.3462 22H44.0005C44.7188 22.0002 45.3821 22.3857 45.7378 23.0098C46.0934 23.6338 46.0871 24.4014 45.7212 25.0195L38.0229 38.0195C37.6629 38.6271 37.0085 38.9998 36.3022 39H4.00049C3.27412 39 2.60515 38.6057 2.25244 37.9707C1.89978 37.3356 1.91924 36.559 2.30322 35.9424L10.3979 22.9424L10.4692 22.8359C10.8431 22.3135 11.4485 22 12.0962 22H12.4585C12.4471 22.046 12.4337 22.0925 12.4224 22.1406ZM16.603 22.2178C16.4658 22.5067 16.4066 22.6738 16.3159 23.0586C16.2251 23.4436 16.1066 24.0295 16.0474 24.5293C15.9882 25.0289 15.9881 25.4307 16.0278 25.8682C16.0318 25.9118 16.037 25.956 16.0415 26H14.0327C13.9976 25.5905 13.9892 25.1934 14.0181 24.7598L14.062 24.2939C14.1155 23.8427 14.2047 23.3553 14.2886 22.96L14.3696 22.5996C14.4244 22.3673 14.4772 22.1783 14.5366 22H16.7124C16.6708 22.0801 16.6344 22.1517 16.603 22.2178ZM34.3599 22.4062L34.5288 22.8438C34.6713 23.2369 34.7424 23.5244 34.8052 23.9326L34.896 24.5947C34.9662 25.1737 34.999 25.6714 34.9985 26H32.9985C32.9998 25.714 32.9554 25.0606 32.8286 24.2363C32.7747 23.8862 32.7284 23.7098 32.5044 23.1553C32.3756 22.8365 32.192 22.402 32.019 22H34.1899C34.251 22.1461 34.3102 22.2834 34.3599 22.4062Z" fill="#313131"/>
</svg>
